# xmcd
#
# Track frame offsets:
#	150
#	13319
#	26632
#	36618
#	49006
#	62720
#	74782
#	87198
#	98350
#	110496
#	123094
#	134991
#	145521
#	158498
#	170181
#	181125
#	193897
#	205244
#	218178
#	229304
#	239195
#	249321
#	261386
#	273212
#	283076
#
# Disc length: 3939 seconds
#
# Revision: 0
# Processed by: cddbd v1.5.2PL0 Copyright (c) Steve Scherf et al.
# Submitted via: EZCDAudioConverter 2.2.2.1
#
DISCID=860f6119
DTITLE=Cowboy Copas - Any Old Time
DYEAR=1900
DGENRE=Country
TTITLE0=Hope Of A Broken Heart
TTITLE1=The Gipsy Told Me
TTITLE2=Return To Sender
TTITLE3=I'll Waltz With You In My Dreams
TTITLE4=The Postman Just Passed Me By
TTITLE5=Doll Of Clay
TTITLE6=Rose Of Oklahoma
TTITLE7=Tennessee Senorita
TTITLE8=If You Will Let Me Be Your Love
TTITLE9=Blue Waltz
TTITLE10=He Stands By The Window
TTITLE11=It's No Sin To Love You
TTITLE12=I've Grown So Used To You
TTITLE13=Carbon Copy
TTITLE14=I'm Glad For Your Sake
TTITLE15=When I Lost You
TTITLE16=Why Should I Want Her
TTITLE17=Jamboree [instr.]
TTITLE18=Because Of You
TTITLE19=Tell Me More
TTITLE20=Summer Kisses
TTITLE21=Party's Over
TTITLE22=Any Old Time
TTITLE23=Don't Shake Hands With The Devil
TTITLE24=The Stone Was Rolled Away
EXTD=
EXTT0=
EXTT1=
EXTT2=
EXTT3=
EXTT4=
EXTT5=
EXTT6=
EXTT7=
EXTT8=
EXTT9=
EXTT10=
EXTT11=
EXTT12=
EXTT13=
EXTT14=
EXTT15=
EXTT16=
EXTT17=
EXTT18=
EXTT19=
EXTT20=
EXTT21=
EXTT22=
EXTT23=
EXTT24=
PLAYORDER=
